PathFileType	4	(X/Y/Z)	E:\MAC3D_DATA\2020_06_02_vinay\TPose1.trc																																																																
DataRate	CameraRate	NumFrames	NumMarkers	Units	OrigDataRate	OrigDataStartFrame	OrigNumFrames																																																												
1000	200	15	22	mm	200	514	822																																																												
Frame#	Time	RAsis			LAsis			RPsi			LPsi			RThigh1			RThigh2			RThigh3			RKneeOut			RKneeIn			LThigh1			LThigh2			LThigh3			LKneeOut			LKneeIn			MidAsis			MidPsi			MidPelvis			RHJC			LHJC			MidHJC			RKJC			LKJC		
		X1	Y1	Z1	X2	Y2	Z2	X3	Y3	Z3	X4	Y4	Z4	X5	Y5	Z5	X6	Y6	Z6	X7	Y7	Z7	X8	Y8	Z8	X9	Y9	Z9	X10	Y10	Z10	X11	Y11	Z11	X12	Y12	Z12	X13	Y13	Z13	X14	Y14	Z14	X15	Y15	Z15	X16	Y16	Z16	X17	Y17	Z17	X18	Y18	Z18	X19	Y19	Z19	X20	Y20	Z20	X21	Y21	Z21	X22	Y22	Z22
																																																																			
514	2.565	35.0155	972.587	227.746	40.04	972.402	-15.337	-160.388	1020.37	154.069	-160.115	1020.92	71.3406	-66.0516	742.07	299.262	-153.221	642.569	270.561	-38.531	660.137	277.285	-113.489	507.575	278.305	-97.1843	492.799	162.955	-15.2359	654.051	-60.4377	-55.9228	747.569	-93.4697	-111.781	650.497	-81.4369	-90.9401	504.475	-70.2563	-90.3454	492.055	44.471	37.53	972.49	106.20	-160.25	1020.64	112.70	-61.36	996.57	109.45	-46.00	904.02	209.13	-44.92	914.16	3.13	-45.46	909.09	106.13	-105.34	500.19	220.63	-90.64	498.26	-12.89
515	2.57	35.0447	972.587	227.754	40.065	972.398	-15.331	-160.362	1020.37	154.074	-160.091	1020.92	71.3441	-66.0294	742.068	299.266	-153.203	642.572	270.568	-38.5074	660.138	277.288	-113.476	507.575	278.31	-97.1701	492.797	162.96	-15.2188	654.046	-60.4289	-55.8983	747.567	-93.4641	-111.766	650.497	-81.4337	-90.9303	504.474	-70.2513	-90.3429	492.052	44.4635	37.55	972.49	106.21	-160.23	1020.64	112.71	-61.34	996.57	109.46	-45.98	904.02	209.13	-44.90	914.16	3.14	-45.44	909.09	106.14	-105.32	500.19	220.63	-90.64	498.26	-12.89
516	2.575	35.0732	972.588	227.76	40.0893	972.394	-15.3261	-160.335	1020.37	154.078	-160.068	1020.92	71.3473	-66.0068	742.067	299.269	-153.184	642.574	270.575	-38.4833	660.138	277.291	-113.462	507.574	278.315	-97.1549	492.795	162.965	-15.202	654.04	-60.421	-55.8737	747.565	-93.4594	-111.751	650.496	-81.4308	-90.9207	504.473	-70.2465	-90.34	492.049	44.4556	37.58	972.49	106.22	-160.20	1020.64	112.71	-61.31	996.57	109.46	-45.95	904.02	209.14	-44.87	914.16	3.15	-45.41	909.09	106.14	-105.31	500.18	220.64	-90.63	498.26	-12.90
517	2.58	35.1009	972.588	227.766	40.1129	972.391	-15.3224	-160.309	1020.37	154.082	-160.045	1020.92	71.35	-65.9843	742.065	299.272	-153.166	642.577	270.582	-38.4587	660.138	277.293	-113.449	507.573	278.318	-97.139	492.794	162.969	-15.1855	654.034	-60.4142	-55.8488	747.564	-93.4555	-111.737	650.496	-81.4282	-90.9111	504.472	-70.2421	-90.3364	492.046	44.4481	37.61	972.49	106.22	-160.18	1020.64	112.72	-61.29	996.57	109.47	-45.93	904.02	209.15	-44.85	914.15	3.15	-45.39	909.09	106.15	-105.29	500.18	220.64	-90.62	498.26	-12.90
518	2.585	35.1279	972.588	227.77	40.1364	972.388	-15.3199	-160.283	1020.37	154.084	-160.023	1020.92	71.3521	-65.962	742.064	299.275	-153.147	642.578	270.587	-38.4339	660.138	277.294	-113.435	507.571	278.321	-97.1225	492.792	162.974	-15.1691	654.028	-60.4086	-55.8237	747.562	-93.4525	-111.722	650.495	-81.4257	-90.9017	504.471	-70.238	-90.3312	492.043	44.4419	37.63	972.49	106.23	-160.15	1020.64	112.72	-61.26	996.57	109.47	-45.90	904.02	209.15	-44.82	914.15	3.16	-45.36	909.09	106.15	-105.28	500.18	220.65	-90.62	498.26	-12.90
519	2.59	35.154	972.587	227.774	40.16	972.384	-15.3187	-160.257	1020.37	154.086	-160	1020.91	71.3537	-65.9404	742.063	299.277	-153.129	642.58	270.592	-38.4091	660.138	277.295	-113.422	507.57	278.323	-97.1056	492.791	162.979	-15.1526	654.022	-60.4042	-55.7985	747.56	-93.4504	-111.708	650.495	-81.4236	-90.8925	504.469	-70.2342	-90.3239	492.039	44.4378	37.66	972.49	106.23	-160.13	1020.64	112.72	-61.24	996.56	109.47	-45.87	904.02	209.15	-44.80	914.15	3.16	-45.34	909.08	106.16	-105.26	500.18	220.65	-90.61	498.25	-12.90
520	2.595	35.1793	972.587	227.776	40.1839	972.38	-15.3187	-160.231	1020.37	154.087	-159.978	1020.91	71.3545	-65.9196	742.061	299.279	-153.111	642.581	270.597	-38.3846	660.137	277.296	-113.409	507.568	278.324	-97.0886	492.79	162.983	-15.136	654.016	-60.401	-55.7731	747.558	-93.449	-111.693	650.494	-81.4217	-90.8833	504.467	-70.2308	-90.3144	492.036	44.436	37.68	972.48	106.23	-160.10	1020.64	112.72	-61.21	996.56	109.47	-45.85	904.02	209.16	-44.77	914.15	3.16	-45.31	909.08	106.16	-105.25	500.18	220.65	-90.60	498.25	-12.90
521	2.6	35.2039	972.586	227.778	40.2082	972.376	-15.3198	-160.205	1020.36	154.087	-159.956	1020.91	71.3544	-65.8999	742.059	299.281	-153.094	642.582	270.6	-38.3607	660.137	277.296	-113.396	507.566	278.324	-97.0718	492.789	162.987	-15.1191	654.01	-60.399	-55.7475	747.555	-93.4485	-111.679	650.493	-81.4202	-90.8742	504.464	-70.2278	-90.3031	492.033	44.4359	37.71	972.48	106.23	-160.08	1020.63	112.72	-61.19	996.56	109.47	-45.83	904.02	209.16	-44.75	914.14	3.16	-45.29	909.08	106.16	-105.23	500.18	220.66	-90.59	498.25	-12.90
522	2.605	35.2278	972.585	227.778	40.2329	972.372	-15.3218	-160.179	1020.36	154.086	-159.934	1020.91	71.3532	-65.8813	742.057	299.282	-153.077	642.583	270.602	-38.3376	660.137	277.296	-113.383	507.563	278.324	-97.0555	492.787	162.99	-15.1018	654.004	-60.398	-55.7217	747.553	-93.4488	-111.664	650.492	-81.4191	-90.8651	504.462	-70.2252	-90.291	492.031	44.4367	37.73	972.48	106.23	-160.06	1020.63	112.72	-61.16	996.56	109.47	-45.80	904.02	209.16	-44.72	914.14	3.16	-45.26	909.08	106.16	-105.22	500.17	220.66	-90.58	498.25	-12.89
523	2.61	35.251	972.583	227.778	40.258	972.368	-15.3247	-160.154	1020.36	154.084	-159.911	1020.91	71.3507	-65.8638	742.056	299.283	-153.061	642.585	270.604	-38.3155	660.136	277.295	-113.371	507.561	278.323	-97.0398	492.786	162.993	-15.0842	653.998	-60.3978	-55.6957	747.55	-93.4499	-111.649	650.491	-81.4186	-90.856	504.459	-70.2233	-90.2786	492.028	44.4376	37.75	972.48	106.23	-160.03	1020.63	112.72	-61.14	996.56	109.47	-45.78	904.02	209.16	-44.70	914.13	3.16	-45.24	909.08	106.16	-105.21	500.17	220.66	-90.57	498.24	-12.89
524	2.615	35.2737	972.582	227.777	40.2833	972.365	-15.3283	-160.128	1020.36	154.081	-159.888	1020.91	71.3468	-65.8475	742.054	299.283	-153.045	642.586	270.604	-38.2947	660.136	277.295	-113.359	507.559	278.322	-97.025	492.784	162.995	-15.0662	653.991	-60.3984	-55.6693	747.547	-93.4516	-111.634	650.49	-81.4187	-90.8468	504.456	-70.222	-90.2663	492.025	44.4385	37.78	972.47	106.22	-160.01	1020.63	112.71	-61.11	996.55	109.47	-45.76	904.02	209.15	-44.67	914.13	3.16	-45.22	909.07	106.16	-105.19	500.17	220.66	-90.56	498.24	-12.89
525	2.62	35.2957	972.58	227.775	40.3087	972.361	-15.3323	-160.102	1020.36	154.076	-159.865	1020.9	71.3414	-65.8326	742.053	299.283	-153.031	642.587	270.603	-38.2752	660.135	277.295	-113.348	507.557	278.32	-97.0111	492.783	162.996	-15.0478	653.985	-60.3994	-55.6426	747.544	-93.4538	-111.618	650.488	-81.4196	-90.8373	504.453	-70.2214	-90.254	492.022	44.4394	37.80	972.47	106.22	-159.98	1020.63	112.71	-61.09	996.55	109.47	-45.74	904.01	209.15	-44.65	914.13	3.16	-45.19	909.07	106.15	-105.18	500.17	220.66	-90.55	498.24	-12.89
526	2.625	35.317	972.578	227.773	40.3343	972.359	-15.3365	-160.076	1020.35	154.069	-159.841	1020.9	71.3343	-65.819	742.052	299.283	-153.017	642.589	270.601	-38.2571	660.135	277.294	-113.337	507.555	278.318	-96.9984	492.781	162.996	-15.029	653.978	-60.4008	-55.6154	747.541	-93.4564	-111.601	650.486	-81.4214	-90.8273	504.45	-70.2216	-90.2419	492.019	44.4404	37.83	972.47	106.22	-159.96	1020.63	112.70	-61.07	996.55	109.46	-45.72	904.01	209.15	-44.62	914.12	3.15	-45.17	909.07	106.15	-105.17	500.17	220.66	-90.53	498.23	-12.89
527	2.63	35.3378	972.576	227.77	40.3599	972.358	-15.3409	-160.05	1020.35	154.061	-159.817	1020.9	71.3254	-65.807	742.052	299.283	-153.005	642.59	270.598	-38.2407	660.135	277.294	-113.327	507.554	278.315	-96.9867	492.779	162.996	-15.0099	653.972	-60.4023	-55.5876	747.537	-93.4593	-111.584	650.485	-81.4242	-90.8169	504.447	-70.2225	-90.2298	492.017	44.4419	37.85	972.47	106.21	-159.93	1020.63	112.69	-61.04	996.55	109.45	-45.69	904.01	209.14	-44.60	914.12	3.15	-45.15	909.07	106.14	-105.16	500.17	220.66	-90.52	498.23	-12.89
528	2.635	35.3578	972.574	227.767	40.3857	972.357	-15.3452	-160.025	1020.35	154.051	-159.792	1020.9	71.3149	-65.7964	742.052	299.282	-152.993	642.592	270.593	-38.2258	660.135	277.294	-113.317	507.553	278.312	-96.9758	492.777	162.994	-14.9904	653.965	-60.404	-55.5592	747.532	-93.4624	-111.567	650.483	-81.428	-90.8058	504.443	-70.2243	-90.2178	492.014	44.4439	37.87	972.47	106.21	-159.91	1020.63	112.68	-61.02	996.55	109.45	-45.68	904.01	209.13	-44.57	914.12	3.14	-45.12	909.07	106.14	-105.15	500.16	220.65	-90.51	498.23	-12.89
